<?xml version="1.0" encoding="UTF-8" standalone="no"?>
<!-- Created with Inkscape (http://www.inkscape.org/) -->

<svg
   width="1479.9827mm"
   height="211.44778mm"
   viewBox="0 0 5244.0332 749.2244"
   id="svg4272"
   version="1.1"
   inkscape:version="1.1 (c68e22c387, 2021-05-23)"
   sodipodi:docname="p2knotext.svg"
   xmlns:inkscape="http://www.inkscape.org/namespaces/inkscape"
   xmlns:sodipodi="http://sodipodi.sourceforge.net/DTD/sodipodi-0.dtd"
   xmlns="http://www.w3.org/2000/svg"
   xmlns:svg="http://www.w3.org/2000/svg"
   xmlns:rdf="http://www.w3.org/1999/02/22-rdf-syntax-ns#"
   xmlns:cc="http://creativecommons.org/ns#"
   xmlns:dc="http://purl.org/dc/elements/1.1/">
  <defs
     id="defs4274">
    <filter
       style="color-interpolation-filters:sRGB"
       inkscape:label="Drop Shadow"
       id="filter969"
       x="-0.033599999"
       y="-0.03875361"
       width="1.0671999"
       height="1.0982267">
      <feFlood
         flood-opacity="0.498039"
         flood-color="rgb(0,0,0)"
         result="flood"
         id="feFlood959" />
      <feComposite
         in="flood"
         in2="SourceGraphic"
         operator="in"
         result="composite1"
         id="feComposite961" />
      <feGaussianBlur
         in="composite1"
         stdDeviation="14"
         result="blur"
         id="feGaussianBlur963" />
      <feOffset
         dx="0"
         dy="17.9641"
         result="offset"
         id="feOffset965" />
      <feComposite
         in="SourceGraphic"
         in2="offset"
         operator="over"
         result="composite2"
         id="feComposite967" />
    </filter>
    <filter
       style="color-interpolation-filters:sRGB"
       inkscape:label="Drop Shadow"
       id="filter922"
       x="-0.0067204462"
       y="-0.053449801"
       width="1.0134409"
       height="1.1354763">
      <feFlood
         flood-opacity="0.498039"
         flood-color="rgb(0,0,0)"
         result="flood"
         id="feFlood912" />
      <feComposite
         in="SourceGraphic"
         in2="flood"
         operator="in"
         result="composite1"
         id="feComposite914" />
      <feGaussianBlur
         in="composite1"
         stdDeviation="14"
         result="blur"
         id="feGaussianBlur916" />
      <feOffset
         dx="0"
         dy="17.9641"
         result="offset"
         id="feOffset918" />
      <feComposite
         in="SourceGraphic"
         in2="offset"
         operator="over"
         result="composite2"
         id="feComposite920" />
    </filter>
  </defs>
  <sodipodi:namedview
     id="base"
     pagecolor="#ffffff"
     bordercolor="#666666"
     borderopacity="1.0"
     inkscape:pageopacity="0.0"
     inkscape:pageshadow="2"
     inkscape:zoom="0.1767767"
     inkscape:cx="2967.02"
     inkscape:cy="8.4852811"
     inkscape:document-units="px"
     inkscape:current-layer="layer1"
     showgrid="false"
     fit-margin-top="10"
     fit-margin-left="25"
     fit-margin-right="25"
     fit-margin-bottom="0"
     inkscape:window-width="1920"
     inkscape:window-height="1009"
     inkscape:window-x="1912"
     inkscape:window-y="-8"
     inkscape:window-maximized="1"
     inkscape:pagecheckerboard="0"
     width="1750mm" />
  <metadata
     id="metadata4277">
    <rdf:RDF>
      <cc:Work
         rdf:about="">
        <dc:format>image/svg+xml</dc:format>
        <dc:type
           rdf:resource="http://purl.org/dc/dcmitype/StillImage" />
      </cc:Work>
    </rdf:RDF>
  </metadata>
  <g
     inkscape:label="Layer 1"
     inkscape:groupmode="layer"
     id="layer1"
     transform="translate(-1193.1807,46.680958)"
     style="mix-blend-mode:color-dodge">
    <g
       id="g3554"
       transform="translate(0,68.584923)"
       style="fill:currentColor;fill-opacity:1;stroke:none;filter:url(#filter922)">
      <g
         aria-label="Panther2K Windows Setup  "
         id="text2645"
         style="font-size:480px;line-height:1.25;font-family:FranklinGothic;-inkscape-font-specification:FranklinGothic;fill-opacity:1;stroke:none;stroke-width:0.9375">
        <path
           d="M 1317.6876,515.24597 V 195.08972 h 146.836 q 39.2578,0 66.7968,11.48438 27.5391,11.48437 41.836,33.63281 14.2968,22.14844 14.2968,53.32031 0,26.83594 -11.9531,48.98438 -11.8359,22.03125 -32.6953,33.98437 -16.875,9.375 -36.3281,13.35938 -19.4531,3.98437 -48.6328,3.98437 h -52.2657 v 121.40625 z m 87.8906,-259.21875 v 74.41406 h 43.125 q 24.8438,0 35.7422,-8.55468 10.8985,-8.55469 10.8985,-27.89063 0,-19.33594 -10.8985,-28.59375 -10.8984,-9.375 -35.7422,-9.375 z"
           style="font-family:'Franklin Gothic';-inkscape-font-specification:'Franklin Gothic';letter-spacing:-28.125px;fill-opacity:1;stroke:none"
           id="path8366" />
        <path
           d="m 1777.7657,356.80847 v 112.85156 q 0,15.35157 0.8204,23.4375 0.8203,7.96875 4.9218,22.14844 h -74.414 q -1.9922,-10.89844 -2.8125,-24.02344 -35.8594,28.82813 -72.0703,28.82813 -29.4141,0 -48.0469,-17.34375 -18.6328,-17.34375 -18.6328,-44.53125 0,-41.01563 35.3906,-62.46094 35.5078,-21.5625 103.3594,-21.5625 v -17.34375 q 0,-13.35937 -8.2032,-20.74219 -8.2031,-7.5 -23.0859,-7.5 -14.7656,0 -22.7344,6.79688 -7.9687,6.79687 -10.7812,21.44531 l -63.3985,-15.35156 q 5.3907,-18.28125 19.1016,-31.40625 13.8281,-13.125 34.9219,-19.80469 21.0937,-6.79687 48.164,-6.79687 49.9219,0 73.711,17.22656 23.789,17.22656 23.789,56.13281 z m -71.4843,52.85156 h -5.8594 q -24.9609,0 -41.4844,11.13282 -16.5234,11.01562 -16.5234,27.77343 0,11.83594 7.6172,20.03907 7.6172,8.20312 18.75,8.20312 16.1718,0 37.5,-14.88281 z"
           style="font-family:'Franklin Gothic';-inkscape-font-specification:'Franklin Gothic';letter-spacing:-28.125px;fill-opacity:1;stroke:none"
           id="path8368" />
        <path
           d="M 1801.9064,515.24597 V 288.25378 h 74.414 v 36.91407 q 35.3907,-41.71875 73.9453,-41.71875 15.586,0 28.8282,6.44531 13.2422,6.44531 21.0937,18.04687 5.9766,8.32032 7.9688,17.69532 2.1093,9.375 2.1093,28.35937 v 161.25 h -74.414 V 378.48816 q 0,-19.6875 -2.461,-27.89063 -5.1562,-14.41406 -19.6875,-14.41406 -21.5625,0 -37.3828,24.49219 v 154.57031 z"
           style="font-family:'Franklin Gothic';-inkscape-font-specification:'Franklin Gothic';letter-spacing:-28.125px;fill-opacity:1;stroke:none"
           id="path8370" />
        <path
           d="M 2053.1564,455.71472 V 340.05066 l -40.3125,0.46875 v -52.85156 l 41.7187,1.52343 6.7969,-78.28125 h 67.1484 v 78.28125 l 48.0469,-1.52343 v 52.85156 l -48.5156,-0.46875 v 84.96094 q 0,16.75781 1.875,24.72656 1.9922,7.96875 9.375,12.07031 7.5,3.98438 23.789,3.98438 8.6719,0 14.8829,-0.9375 v 50.39062 q -18.3985,3.86719 -41.25,3.86719 -34.1016,0 -52.0313,-6.32813 -17.9297,-6.32812 -24.7266,-19.80468 -6.7968,-13.59375 -6.7968,-37.26563 z"
           style="font-family:'Franklin Gothic';-inkscape-font-specification:'Franklin Gothic';letter-spacing:-28.125px;fill-opacity:1;stroke:none"
           id="path8372" />
        <path
           d="m 2189.2111,515.24597 v -321.5625 h 74.414 v 134.88281 q 34.336,-45.11718 74.8828,-45.11718 14.5313,0 27.1875,6.32812 12.7735,6.32813 20.3907,17.57813 11.9531,17.57812 11.9531,47.10937 v 160.78125 h -74.4141 v -140.625 q 0,-37.96875 -24.0234,-37.96875 -20.625,0 -35.9766,24.49219 v 154.10156 z"
           style="font-family:'Franklin Gothic';-inkscape-font-specification:'Franklin Gothic';letter-spacing:-28.125px;fill-opacity:1;stroke:none"
           id="path8374" />
        <path
           d="m 2577.2189,438.95691 48.0468,22.96875 q -32.5781,58.125 -100.3125,58.125 -33.8671,0 -60.5859,-14.41406 -26.7187,-14.53125 -41.7187,-40.66407 -14.8829,-26.25 -14.8829,-59.17968 0,-33.16407 15.1172,-61.40625 15.2344,-28.35938 41.3672,-44.64844 26.1328,-16.28906 56.836,-16.28906 30.8203,0 55.4296,15.70312 24.7266,15.70313 38.6719,43.59375 13.9453,27.77344 13.9453,62.10938 v 11.01562 h -142.6172 q 2.3438,53.32031 46.6407,53.32031 29.2968,0 44.0625,-30.23437 z m -90.2344,-62.46094 h 68.2031 q -1.4062,-46.99219 -32.6953,-46.99219 -15.4687,0 -25.3125,13.125 -9.8437,13.00782 -10.1953,33.86719 z"
           style="font-family:'Franklin Gothic';-inkscape-font-specification:'Franklin Gothic';letter-spacing:-28.125px;fill-opacity:1;stroke:none"
           id="path8376" />
        <path
           d="M 2639.797,515.24597 V 288.25378 h 74.4141 v 46.52344 q 33.5156,-48.98437 84.4921,-48.98437 v 73.94531 q -20.625,-7.73438 -36.4453,-7.73438 -35.039,0 -48.0468,26.01563 v 137.22656 z"
           style="font-family:'Franklin Gothic';-inkscape-font-specification:'Franklin Gothic';letter-spacing:-28.125px;fill-opacity:1;stroke:none"
           id="path8378" />
        <path
           d="m 3037.4142,442.8241 v 72.42187 h -243.3985 v -53.32031 l 114.2579,-99.84375 q 46.1718,-39.49219 46.1718,-70.07813 0,-11.01562 -5.039,-19.80468 -4.9219,-8.78907 -13.711,-13.82813 -8.6718,-5.15625 -19.2187,-5.15625 -38.3203,0 -61.875,55.19531 l -61.5235,-34.57031 q 22.6172,-40.78125 52.7344,-59.76562 30.2344,-18.98438 72.5391,-18.98438 34.2187,0 61.7578,12.07031 27.6562,12.07032 43.125,33.39844 15.5859,21.32813 15.5859,47.69531 0,22.26563 -9.375,40.89844 -9.375,18.51563 -27.0703,35.27344 -17.6953,16.64062 -39.2578,31.64062 -21.5625,15 -70.1953,46.75782 z"
           style="font-family:'Franklin Gothic';-inkscape-font-specification:'Franklin Gothic';letter-spacing:-28.125px;fill-opacity:1;stroke:none"
           id="path8380" />
        <path
           d="M 3064.0157,515.24597 V 195.08972 h 87.8907 v 134.41406 l 93.5156,-134.41406 h 83.5547 l -76.7578,103.24219 94.5703,216.91406 h -93.6328 l -59.0625,-139.6875 -42.1875,55.66406 v 84.02344 z"
           style="font-family:'Franklin Gothic';-inkscape-font-specification:'Franklin Gothic';letter-spacing:-28.125px;fill-opacity:1;stroke:none"
           id="path8382" />
        <path
           d="m 3514.2501,515.24597 -87.8906,-320.15625 h 87.8906 l 47.9297,190.54688 49.9219,-190.54688 h 74.414 l 51.4454,188.20313 48.8671,-188.20313 h 69.1407 l -89.2969,320.15625 h -75.8203 l -51.3281,-187.73437 -50.3907,187.73437 z"
           style="font-family:'Franklin Gothic';-inkscape-font-specification:'Franklin Gothic';letter-spacing:-28.125px;fill-opacity:1;stroke:none"
           id="path8384" />
        <path
           d="M 3849.9923,515.24597 V 288.25378 h 74.4141 v 226.99219 z m 0,-254.41406 v -67.14844 h 74.4141 v 67.14844 z"
           style="font-family:'Franklin Gothic';-inkscape-font-specification:'Franklin Gothic';letter-spacing:-28.125px;fill-opacity:1;stroke:none"
           id="path8386" />
        <path
           d="M 3947.6095,515.24597 V 288.25378 h 74.4141 v 36.91407 q 35.3906,-41.71875 73.9453,-41.71875 15.5859,0 28.8281,6.44531 13.2422,6.44531 21.0937,18.04687 5.9766,8.32032 7.9688,17.69532 2.1094,9.375 2.1094,28.35937 v 161.25 h -74.4141 V 378.48816 q 0,-19.6875 -2.4609,-27.89063 -5.1563,-14.41406 -19.6875,-14.41406 -21.5625,0 -37.3828,24.49219 v 154.57031 z"
           style="font-family:'Franklin Gothic';-inkscape-font-specification:'Franklin Gothic';letter-spacing:-28.125px;fill-opacity:1;stroke:none"
           id="path8388" />
        <path
           d="m 4313.5861,515.24597 v -26.83594 q -27.5391,31.64063 -63.3985,31.64063 -25.3125,0 -44.2969,-13.59375 -18.8671,-13.71094 -29.0625,-39.14063 -10.0781,-25.54687 -10.0781,-60.11718 0,-56.36719 22.9688,-88.24219 12.0703,-16.75781 29.0625,-26.13281 16.9922,-9.375 35.2734,-9.375 16.0547,0 29.5313,6.44531 13.5937,6.44531 30,21.79687 V 193.68347 h 74.414 v 321.5625 z m 0,-166.52344 q -14.4141,-19.21875 -33.1641,-19.21875 -16.875,0 -26.25,16.99219 -9.2578,16.99219 -9.2578,47.34375 0,79.6875 35.039,79.6875 15.3516,0 33.6329,-20.15625 z"
           style="font-family:'Franklin Gothic';-inkscape-font-specification:'Franklin Gothic';letter-spacing:-28.125px;fill-opacity:1;stroke:none"
           id="path8390" />
        <path
           d="m 4509.172,283.4491 q 32.9297,0 58.3594,14.88281 25.4297,14.76562 39.375,41.60156 14.0625,26.83594 14.0625,61.52344 0,26.13281 -8.086,48.04687 -7.9687,21.91407 -22.8515,37.73438 -14.7657,15.70312 -35.5078,24.25781 -20.7422,8.55469 -45.3516,8.55469 -32.6953,0 -58.125,-14.88281 -25.3125,-14.88282 -39.375,-41.95313 -13.9453,-27.07031 -13.9453,-61.75781 0,-34.33594 13.9453,-61.28906 14.0625,-27.07032 39.4922,-41.83594 25.4297,-14.88281 58.0078,-14.88281 z m 0.4687,48.39843 q -33.6328,0 -33.6328,72.07032 0,67.14843 34.1016,67.14843 32.1094,0 32.1094,-71.48437 0,-67.73438 -32.5782,-67.73438 z"
           style="font-family:'Franklin Gothic';-inkscape-font-specification:'Franklin Gothic';letter-spacing:-28.125px;fill-opacity:1;stroke:none"
           id="path8392" />
        <path
           d="m 4673.0001,515.24597 -70.5469,-226.99219 h 74.8829 l 36.5625,115.66407 37.3828,-115.66407 h 53.789 l 34.5703,115.66407 35.9766,-115.66407 h 54.2578 l -75.8203,226.99219 h -53.7891 l -35.5078,-116.60156 -36.5625,116.60156 z"
           style="font-family:'Franklin Gothic';-inkscape-font-specification:'Franklin Gothic';letter-spacing:-28.125px;fill-opacity:1;stroke:none"
           id="path8394" />
        <path
           d="m 4907.9611,468.25378 45.5859,-24.49218 q 18.1641,32.10937 59.5312,32.10937 16.9922,0 26.4844,-5.50781 9.4922,-5.50781 9.4922,-15.11719 0,-12.07031 -9.7266,-15.35156 -9.7265,-3.28125 -40.664,-9.14063 -30.9375,-5.85937 -46.9922,-14.88281 -33.1641,-18.63281 -33.1641,-54.25781 0,-22.38281 12.3047,-40.19531 12.3047,-17.92969 34.2188,-27.89063 21.914,-10.07812 48.9843,-10.07812 66.7969,0 93.6329,49.92187 l -44.1797,23.4375 q -14.7657,-28.71094 -48.9844,-28.71094 -13.9453,0 -22.6172,5.15625 -8.5547,5.15625 -8.5547,13.47657 0,9.25781 8.5547,13.24218 8.6719,3.98438 29.5313,7.38282 20.9765,3.28125 35.7421,7.26562 14.7657,3.86719 28.3594,13.47656 14.4141,9.96094 22.0313,24.14063 7.7343,14.17969 7.7343,31.52344 0,22.38281 -12.539,39.84375 -12.5391,17.34375 -35.3906,26.95312 -22.8516,9.49219 -52.3829,9.49219 -81.5625,0 -106.9921,-51.79688 z"
           style="font-family:'Franklin Gothic';-inkscape-font-specification:'Franklin Gothic';letter-spacing:-28.125px;fill-opacity:1;stroke:none"
           id="path8396" />
        <path
           d="m 5222.7267,460.51941 54.2578,-42.65625 q 13.0078,21.79687 30.5859,31.52344 17.6953,9.72656 44.2969,9.72656 22.6172,0 35.9766,-7.96875 13.4765,-8.08594 13.4765,-21.32813 0,-17.22656 -29.0625,-26.25 -29.0625,-9.14062 -60.4687,-17.92968 -31.2891,-8.90625 -53.6719,-29.76563 -22.3828,-20.97656 -22.3828,-63.39844 0,-29.64843 15.8203,-53.08593 15.8203,-23.55469 44.0625,-36.5625 28.3594,-13.00782 63.9844,-13.00782 73.0078,0 113.6719,49.92188 l -51.3282,41.71875 q -14.1797,-16.64063 -27.8906,-23.67188 -13.7109,-7.03125 -32.5781,-7.03125 -19.1016,0 -31.4063,7.61719 -12.3047,7.61719 -12.3047,19.21875 0,16.75781 28.4766,24.96094 28.4766,8.08594 61.1719,16.64062 32.8125,8.55469 55.5469,29.88282 22.8515,21.21093 22.8515,64.92187 0,32.10938 -15.8203,56.36719 -15.7031,24.25781 -44.6484,37.5 -28.9453,13.125 -66.7969,13.125 -98.4375,0 -135.8203,-60.46875 z"
           style="font-family:'Franklin Gothic';-inkscape-font-specification:'Franklin Gothic';letter-spacing:-28.125px;fill-opacity:1;stroke:none"
           id="path8398" />
        <path
           d="m 5655.3829,438.95691 48.0469,22.96875 q -32.5781,58.125 -100.3125,58.125 -33.8672,0 -60.5859,-14.41406 -26.7188,-14.53125 -41.7188,-40.66407 -14.8828,-26.25 -14.8828,-59.17968 0,-33.16407 15.1172,-61.40625 15.2344,-28.35938 41.3672,-44.64844 26.1328,-16.28906 56.8359,-16.28906 30.8203,0 55.4297,15.70312 24.7266,15.70313 38.6719,43.59375 13.9453,27.77344 13.9453,62.10938 v 11.01562 h -142.6172 q 2.3438,53.32031 46.6406,53.32031 29.2969,0 44.0625,-30.23437 z m -90.2343,-62.46094 h 68.2031 q -1.4063,-46.99219 -32.6953,-46.99219 -15.4688,0 -25.3125,13.125 -9.8438,13.00782 -10.1953,33.86719 z"
           style="font-family:'Franklin Gothic';-inkscape-font-specification:'Franklin Gothic';letter-spacing:-28.125px;fill-opacity:1;stroke:none"
           id="path8400" />
        <path
           d="M 5727.5704,455.71472 V 340.05066 l -40.3125,0.46875 v -52.85156 l 41.7188,1.52343 6.7969,-78.28125 h 67.1484 v 78.28125 l 48.0469,-1.52343 v 52.85156 l -48.5157,-0.46875 v 84.96094 q 0,16.75781 1.875,24.72656 1.9922,7.96875 9.375,12.07031 7.5,3.98438 23.7891,3.98438 8.6719,0 14.8828,-0.9375 v 50.39062 q -18.3984,3.86719 -41.25,3.86719 -34.1015,0 -52.0312,-6.32813 -17.9297,-6.32812 -24.7266,-19.80468 -6.7969,-13.59375 -6.7969,-37.26563 z"
           style="font-family:'Franklin Gothic';-inkscape-font-specification:'Franklin Gothic';letter-spacing:-28.125px;fill-opacity:1;stroke:none"
           id="path8402" />
        <path
           d="m 6073.3907,288.25378 v 226.99219 h -74.414 v -37.38281 q -36.0938,42.1875 -76.2891,42.1875 -59.0625,0 -59.0625,-70.07813 V 288.25378 h 74.4141 v 133.35938 q 0,21.5625 2.9297,30.70312 3.8672,14.88282 19.6875,14.88282 20.3906,0 38.3203,-24.375 V 288.25378 Z"
           style="font-family:'Franklin Gothic';-inkscape-font-specification:'Franklin Gothic';letter-spacing:-28.125px;fill-opacity:1;stroke:none"
           id="path8404" />
        <path
           d="M 6096.1251,582.39441 V 288.25378 h 74.4141 v 28.24219 q 32.8125,-33.51562 64.3359,-33.51562 25.0781,0 43.125,14.0625 18.0469,13.94531 27.5391,40.42968 9.4922,26.48438 9.4922,62.57813 0,58.125 -20.1563,86.83594 -10.7812,15.82031 -27.3047,24.49218 -16.4062,8.67188 -35.1562,8.67188 -34.8047,0 -61.875,-31.17188 v 93.51563 z m 74.4141,-127.61719 q 15.9375,18.75 33.6328,18.75 17.3437,0 24.9609,-18.75 7.6172,-18.75 7.6172,-61.875 0,-30.58594 -9.0234,-46.75781 -8.9063,-16.17188 -25.5469,-16.17188 -15,0 -31.6406,20.15625 z"
           style="font-family:'Franklin Gothic';-inkscape-font-specification:'Franklin Gothic';letter-spacing:-28.125px;fill-opacity:1;stroke:none"
           id="path8406" />
      </g>
      <g
         aria-label="Leet's"
         id="text30724"
         style="font-size:240px;line-height:1.25;fill-opacity:1;stroke:none;stroke-width:0.9375">
        <path
           d="m 1409.8165,96.150002 v 17.578128 h -94.4531 V -46.232811 h 20.5078 V 96.150002 Z"
           style="font-family:'Franklin Gothic Book';-inkscape-font-specification:'Franklin Gothic Book, ';fill-opacity:1;stroke:none"
           id="path8409" />
        <path
           d="m 1509.4259,78.454689 17.1094,3.515625 q -4.6875,15.117188 -18.2813,25.078126 -13.5937,9.84375 -31.9922,9.84375 -24.2578,0 -39.2578,-16.992188 -15,-17.109375 -15,-44.765625 0,-28.242188 15.586,-45.585938 15.5859,-17.4609375 39.1406,-17.4609375 23.2031,0 37.2656,16.0546875 14.1797,16.054688 14.5313,48.046875 h -86.0157 q 0,26.835938 11.25,36.210938 11.25,9.374998 23.7891,9.374998 22.6172,0 31.875,-23.320311 z m -1.0547,-35.976562 q -0.2344,-9.960938 -3.2812,-17.695313 -3.0469,-7.734375 -10.3125,-13.125 -7.2657,-5.5078125 -17.461,-5.5078125 -13.7109,0 -23.3203,9.8437505 -9.4922,9.84375 -10.664,26.484375 z"
           style="font-family:'Franklin Gothic Book';-inkscape-font-specification:'Franklin Gothic Book, ';fill-opacity:1;stroke:none"
           id="path8411" />
        <path
           d="m 1634.3478,78.454689 17.1094,3.515625 q -4.6875,15.117188 -18.2813,25.078126 -13.5937,9.84375 -31.9922,9.84375 -24.2578,0 -39.2578,-16.992188 -15,-17.109375 -15,-44.765625 0,-28.242188 15.5859,-45.585938 15.586,-17.4609375 39.1407,-17.4609375 23.2031,0 37.2656,16.0546875 14.1797,16.054688 14.5312,48.046875 h -86.0156 q 0,26.835938 11.25,36.210938 11.25,9.374998 23.7891,9.374998 22.6172,0 31.875,-23.320311 z m -1.0547,-35.976562 q -0.2344,-9.960938 -3.2813,-17.695313 -3.0468,-7.734375 -10.3125,-13.125 -7.2656,-5.5078125 -17.4609,-5.5078125 -13.7109,0 -23.3203,9.8437505 -9.4922,9.84375 -10.6641,26.484375 z"
           style="font-family:'Franklin Gothic Book';-inkscape-font-specification:'Franklin Gothic Book, ';fill-opacity:1;stroke:none"
           id="path8413" />
        <path
           d="m 1733.6056,101.07188 v 14.53125 q -9.7266,1.28906 -16.875,1.28906 -34.3359,0 -34.3359,-35.859376 v -71.25 h -20.9766 V -4.6312485 h 20.9766 l 0.8203,-29.7656245 17.1093,-1.640625 v 31.4062495 h 26.4844 V 9.782814 h -26.4844 v 74.296875 q 0,18.281251 18.9844,18.281251 6.3281,0 14.2969,-1.28906 z"
           style="font-family:'Franklin Gothic Book';-inkscape-font-specification:'Franklin Gothic Book, ';fill-opacity:1;stroke:none"
           id="path8415" />
        <path
           d="m 1763.0197,15.642189 h -11.7188 l -3.5156,-61.875 h 18.75 z"
           style="font-family:'Franklin Gothic Book';-inkscape-font-specification:'Franklin Gothic Book, ';fill-opacity:1;stroke:none"
           id="path8417" />
        <path
           d="m 1781.3009,83.025002 17.5781,-3.632813 q 5.8594,22.382811 37.0313,22.382811 11.4844,0 19.4531,-5.156248 7.9688,-5.15625 7.9688,-14.53125 0,-13.945313 -20.2735,-17.695313 l -24.9609,-4.6875 q -14.6485,-2.8125 -23.3203,-11.015625 -8.6719,-8.203125 -8.6719,-21.679687 0,-14.882813 11.8359,-24.8437505 11.836,-10.078125 31.875,-10.078125 38.5547,0 47.5782,30.1171875 l -16.875,3.632813 q -7.2657,-18.5156255 -29.8829,-18.5156255 -11.25,0 -18.5156,4.6875005 -7.1484,4.570312 -7.1484,12.890625 0,13.125 18.3984,16.523437 l 23.086,4.101563 q 36.2109,6.5625 36.2109,35.039062 0,16.289063 -13.4766,26.367186 -13.4765,9.96094 -35.8593,9.96094 -42.0704,0 -52.0313,-33.867188 z"
           style="font-family:'Franklin Gothic Book';-inkscape-font-specification:'Franklin Gothic Book, ';fill-opacity:1;stroke:none"
           id="path8419" />
      </g>
    </g>
  </g>
</svg>
